<svg width="30" height="30" viewBox="0 0 30 30" fill="none" xmlns="http://www.w3.org/2000/svg">
<g clip-path="url(#clip0_33_34)">
<path d="M15.005 7.29761C10.7513 7.29761 7.30751 10.7451 7.30751 14.9951C7.30751 19.2489 10.755 22.6926 15.005 22.6926C19.2588 22.6926 22.7025 19.2451 22.7025 14.9951C22.7025 10.7414 19.255 7.29761 15.005 7.29761ZM15.005 19.9914C12.2438 19.9914 10.0088 17.7551 10.0088 14.9951C10.0088 12.2351 12.245 9.99886 15.005 9.99886C17.765 9.99886 20.0013 12.2351 20.0013 14.9951C20.0025 17.7551 17.7663 19.9914 15.005 19.9914Z" fill="#FEFEFE"/>
<path d="M21.1845 0.0964306C18.4245 -0.0323194 11.5883 -0.0260694 8.82576 0.0964306C6.39826 0.210181 4.25701 0.79643 2.53076 2.52268C-0.354244 5.40768 0.0145059 9.29518 0.0145059 14.9964C0.0145059 20.8314 -0.310494 24.6289 2.53076 27.4702C5.42701 30.3652 9.37076 29.9864 15.0045 29.9864C20.7845 29.9864 22.7795 29.9902 24.8233 29.1989C27.602 28.1202 29.6995 25.6364 29.9045 21.1752C30.0345 18.4139 30.027 11.5789 29.9045 8.81643C29.657 3.55018 26.8308 0.356431 21.1845 0.0964306ZM25.5533 25.5614C23.662 27.4527 21.0383 27.2839 14.9683 27.2839C8.71826 27.2839 6.21201 27.3764 4.38326 25.5427C2.27701 23.4464 2.65826 20.0802 2.65826 14.9764C2.65826 8.07018 1.94951 3.09643 8.88076 2.74143C10.4733 2.68518 10.942 2.66643 14.9508 2.66643L15.007 2.70393C21.6683 2.70393 26.8945 2.00643 27.2083 8.93643C27.2795 10.5177 27.2958 10.9927 27.2958 14.9952C27.2945 21.1727 27.412 23.6939 25.5533 25.5614Z" fill="#FEFEFE"/>
<path d="M23.0075 8.79257C24.0009 8.79257 24.8063 7.98724 24.8063 6.99382C24.8063 6.0004 24.0009 5.19507 23.0075 5.19507C22.0141 5.19507 21.2088 6.0004 21.2088 6.99382C21.2088 7.98724 22.0141 8.79257 23.0075 8.79257Z" fill="#FEFEFE"/>
</g>
<defs>
<clipPath id="clip0_33_34">
<rect width="30" height="30" fill="white"/>
</clipPath>
</defs>
</svg>
