<svg width="50" height="50" viewBox="0 0 50 50" fill="none" xmlns="http://www.w3.org/2000/svg">
<circle cx="25" cy="25" r="25" fill="white"/>
<path d="M32 24H18M32 24C33.1046 24 34 24.8954 34 26V32C34 33.1046 33.1046 34 32 34H18C16.8954 34 16 33.1046 16 32V26C16 24.8954 16.8954 24 18 24M32 24V22C32 20.8954 31.1046 20 30 20M18 24V22C18 20.8954 18.8954 20 20 20M20 20V18C20 16.8954 20.8954 16 22 16H28C29.1046 16 30 16.8954 30 18V20M20 20H30" stroke="#111827" stroke-width="2" stroke-linecap="round" stroke-linejoin="round"/>
</svg>
