<svg width="133" height="44" viewBox="0 0 133 44" fill="none" xmlns="http://www.w3.org/2000/svg">
<g filter="url(#filter0_d_48_84)">
<path d="M56.12 36L50.69 11.7H53.87L57.71 29.61L61.37 11.7H64.46L59.09 36H56.12ZM67.0365 36V11.7H71.9265C73.5465 11.7 74.8865 11.92 75.9465 12.36C77.0065 12.78 77.7865 13.47 78.2865 14.43C78.8065 15.37 79.0665 16.61 79.0665 18.15C79.0665 19.09 78.9665 19.95 78.7665 20.73C78.5665 21.49 78.2465 22.14 77.8065 22.68C77.3665 23.2 76.7865 23.58 76.0665 23.82L79.5165 36H76.2465L73.0665 24.6H70.4265V36H67.0365ZM70.4265 22.17H71.7165C72.6765 22.17 73.4565 22.05 74.0565 21.81C74.6565 21.57 75.0965 21.16 75.3765 20.58C75.6565 20 75.7965 19.19 75.7965 18.15C75.7965 16.73 75.5365 15.71 75.0165 15.09C74.4965 14.45 73.4665 14.13 71.9265 14.13H70.4265V22.17ZM89.4486 36V11.7H92.8386V33.57H99.0486V36H89.4486ZM100.052 36L105.212 11.7H108.482L113.672 36H110.462L109.352 29.88H104.402L103.232 36H100.052ZM104.852 27.45H108.902L106.862 16.5L104.852 27.45ZM116.138 36V11.7H121.718C122.818 11.7 123.768 11.82 124.568 12.06C125.388 12.3 126.068 12.67 126.608 13.17C127.148 13.67 127.548 14.31 127.808 15.09C128.068 15.85 128.198 16.75 128.198 17.79C128.198 18.79 128.068 19.66 127.808 20.4C127.568 21.12 127.188 21.69 126.668 22.11C126.168 22.53 125.518 22.8 124.718 22.92C125.698 23.14 126.488 23.52 127.088 24.06C127.688 24.58 128.128 25.26 128.408 26.1C128.708 26.92 128.858 27.91 128.858 29.07C128.858 30.11 128.738 31.06 128.498 31.92C128.258 32.78 127.878 33.51 127.358 34.11C126.858 34.71 126.208 35.18 125.408 35.52C124.628 35.84 123.698 36 122.618 36H116.138ZM119.528 33.57H121.808C123.328 33.57 124.338 33.22 124.838 32.52C125.358 31.8 125.618 30.65 125.618 29.07C125.618 28.05 125.478 27.2 125.198 26.52C124.938 25.82 124.508 25.3 123.908 24.96C123.328 24.6 122.538 24.42 121.538 24.42H119.528V33.57ZM119.528 21.84H121.538C122.498 21.84 123.248 21.71 123.788 21.45C124.328 21.17 124.708 20.73 124.928 20.13C125.148 19.53 125.258 18.75 125.258 17.79C125.258 16.67 125.088 15.86 124.748 15.36C124.408 14.86 123.878 14.55 123.158 14.43C122.438 14.29 121.498 14.22 120.338 14.22H119.528V21.84Z" fill="white"/>
</g>
<path d="M14.9844 34.4376C15.179 33.9367 15.2717 33.4021 15.2573 32.865C15.2869 31.3764 15.6848 29.9184 16.4153 28.621C17.144 27.3258 18.1831 26.2321 19.4393 25.438C19.9044 25.1885 20.3141 24.8473 20.6435 24.4349C20.9729 24.0225 21.2153 23.5476 21.3559 23.0389C21.4965 22.5301 21.5324 21.9982 21.4615 21.4751C21.3906 20.9521 21.2143 20.4489 20.9433 19.996C20.5813 19.391 20.0603 18.895 19.4393 18.565C19.0833 18.318 18.7413 18.052 18.4153 17.767L17.5983 16.967C16.1012 15.3932 15.2617 13.3071 15.2513 11.135C15.2667 10.5978 15.1744 10.0629 14.9799 9.56188C14.7853 9.06089 14.4923 8.60395 14.1183 8.218C13.7459 7.83249 13.2997 7.52595 12.8062 7.31668C12.3128 7.10742 11.7823 6.99971 11.2463 7C10.7106 7.00076 10.1805 7.10894 9.68738 7.31815C9.19424 7.52735 8.74808 7.83334 8.37527 8.218C8.00189 8.60462 7.70937 9.06183 7.51483 9.56287C7.32029 10.0639 7.22763 10.5987 7.24227 11.136C7.251 11.8334 7.4431 12.5163 7.79927 13.116C8.15421 13.7147 8.66096 14.209 9.26827 14.549C11.7273 16.105 13.4383 19.08 13.4383 22.006C13.4322 24.1592 12.6087 26.2298 11.1343 27.799L9.27427 29.451C8.66727 29.79 8.16027 30.284 7.80427 30.884C7.44727 31.483 7.25627 32.167 7.24727 32.865C7.23197 33.4022 7.32434 33.9371 7.51892 34.438C7.7135 34.939 8.00637 35.396 8.38027 35.782C8.7527 36.1674 9.19894 36.4739 9.69237 36.6832C10.1858 36.8924 10.7163 37.0002 11.2523 37C11.7881 36.9994 12.3184 36.8913 12.8117 36.682C13.305 36.4728 13.7513 36.1668 14.1243 35.782C14.4975 35.3955 14.7899 34.9384 14.9844 34.4376Z" fill="white"/>
<path d="M14.9844 34.4376C15.179 33.9367 15.2717 33.4021 15.2573 32.865C15.2869 31.3764 15.6848 29.9184 16.4153 28.621C17.144 27.3258 18.1831 26.2321 19.4393 25.438C19.9044 25.1885 20.3141 24.8473 20.6435 24.4349C20.9729 24.0225 21.2153 23.5476 21.3559 23.0389C21.4965 22.5301 21.5324 21.9982 21.4615 21.4751C21.3906 20.9521 21.2143 20.4489 20.9433 19.996C20.5813 19.391 20.0603 18.895 19.4393 18.565C19.0833 18.318 18.7413 18.052 18.4153 17.767L17.5983 16.967C16.1012 15.3932 15.2617 13.3071 15.2513 11.135C15.2667 10.5978 15.1744 10.0629 14.9799 9.56188C14.7853 9.06089 14.4923 8.60395 14.1183 8.218C13.7459 7.83249 13.2997 7.52595 12.8062 7.31668C12.3128 7.10742 11.7823 6.99971 11.2463 7C10.7106 7.00076 10.1805 7.10894 9.68738 7.31815C9.19424 7.52735 8.74808 7.83334 8.37527 8.218C8.00189 8.60462 7.70937 9.06183 7.51483 9.56287C7.32029 10.0639 7.22763 10.5987 7.24227 11.136C7.251 11.8334 7.4431 12.5163 7.79927 13.116C8.15421 13.7147 8.66096 14.209 9.26827 14.549C11.7273 16.105 13.4383 19.08 13.4383 22.006C13.4322 24.1592 12.6087 26.2298 11.1343 27.799L9.27427 29.451C8.66727 29.79 8.16027 30.284 7.80427 30.884C7.44727 31.483 7.25627 32.167 7.24727 32.865C7.23197 33.4022 7.32434 33.9371 7.51892 34.438C7.7135 34.939 8.00637 35.396 8.38027 35.782C8.7527 36.1674 9.19894 36.4739 9.69237 36.6832C10.1858 36.8924 10.7163 37.0002 11.2523 37C11.7881 36.9994 12.3184 36.8913 12.8117 36.682C13.305 36.4728 13.7513 36.1668 14.1243 35.782C14.4975 35.3955 14.7899 34.9384 14.9844 34.4376Z" fill="white"/>
<path d="M14.9844 34.4376C15.179 33.9367 15.2717 33.4021 15.2573 32.865C15.2869 31.3764 15.6848 29.9184 16.4153 28.621C17.144 27.3258 18.1831 26.2321 19.4393 25.438C19.9044 25.1885 20.3141 24.8473 20.6435 24.4349C20.9729 24.0225 21.2153 23.5476 21.3559 23.0389C21.4965 22.5301 21.5324 21.9982 21.4615 21.4751C21.3906 20.9521 21.2143 20.4489 20.9433 19.996C20.5813 19.391 20.0603 18.895 19.4393 18.565C19.0833 18.318 18.7413 18.052 18.4153 17.767L17.5983 16.967C16.1012 15.3932 15.2617 13.3071 15.2513 11.135C15.2667 10.5978 15.1744 10.0629 14.9799 9.56188C14.7853 9.06089 14.4923 8.60395 14.1183 8.218C13.7459 7.83249 13.2997 7.52595 12.8062 7.31668C12.3128 7.10742 11.7823 6.99971 11.2463 7C10.7106 7.00076 10.1805 7.10894 9.68738 7.31815C9.19424 7.52735 8.74808 7.83334 8.37527 8.218C8.00189 8.60462 7.70937 9.06183 7.51483 9.56287C7.32029 10.0639 7.22763 10.5987 7.24227 11.136C7.251 11.8334 7.4431 12.5163 7.79927 13.116C8.15421 13.7147 8.66096 14.209 9.26827 14.549C11.7273 16.105 13.4383 19.08 13.4383 22.006C13.4322 24.1592 12.6087 26.2298 11.1343 27.799L9.27427 29.451C8.66727 29.79 8.16027 30.284 7.80427 30.884C7.44727 31.483 7.25627 32.167 7.24727 32.865C7.23197 33.4022 7.32434 33.9371 7.51892 34.438C7.7135 34.939 8.00637 35.396 8.38027 35.782C8.7527 36.1674 9.19894 36.4739 9.69237 36.6832C10.1858 36.8924 10.7163 37.0002 11.2523 37C11.7881 36.9994 12.3184 36.8913 12.8117 36.682C13.305 36.4728 13.7513 36.1668 14.1243 35.782C14.4975 35.3955 14.7899 34.9384 14.9844 34.4376Z" fill="white"/>
<path d="M20.4163 13.36C19.9753 12.698 19.7403 11.919 19.7403 11.123C19.7409 10.0567 20.1633 9.034 20.9153 8.278C21.5691 7.62024 22.4314 7.2105 23.3543 7.11909C24.2772 7.02768 25.2031 7.26028 25.9733 7.777C26.6329 8.2199 27.1466 8.84836 27.4493 9.583C27.752 10.3185 27.831 11.1269 27.6765 11.9071C27.5219 12.6873 27.1406 13.4045 26.5803 13.969C26.0217 14.5319 25.308 14.9156 24.5304 15.0711C23.7527 15.2266 22.9464 15.1468 22.2143 14.842C21.4815 14.5369 20.8557 14.0211 20.4163 13.36Z" fill="white"/>
<path d="M20.4163 13.36C19.9753 12.698 19.7403 11.919 19.7403 11.123C19.7409 10.0567 20.1633 9.034 20.9153 8.278C21.5691 7.62024 22.4314 7.2105 23.3543 7.11909C24.2772 7.02768 25.2031 7.26028 25.9733 7.777C26.6329 8.2199 27.1466 8.84836 27.4493 9.583C27.752 10.3185 27.831 11.1269 27.6765 11.9071C27.5219 12.6873 27.1406 13.4045 26.5803 13.969C26.0217 14.5319 25.308 14.9156 24.5304 15.0711C23.7527 15.2266 22.9464 15.1468 22.2143 14.842C21.4815 14.5369 20.8557 14.0211 20.4163 13.36Z" fill="white"/>
<path d="M20.4163 13.36C19.9753 12.698 19.7403 11.919 19.7403 11.123C19.7409 10.0567 20.1633 9.034 20.9153 8.278C21.5691 7.62024 22.4314 7.2105 23.3543 7.11909C24.2772 7.02768 25.2031 7.26028 25.9733 7.777C26.6329 8.2199 27.1466 8.84836 27.4493 9.583C27.752 10.3185 27.831 11.1269 27.6765 11.9071C27.5219 12.6873 27.1406 13.4045 26.5803 13.969C26.0217 14.5319 25.308 14.9156 24.5304 15.0711C23.7527 15.2266 22.9464 15.1468 22.2143 14.842C21.4815 14.5369 20.8557 14.0211 20.4163 13.36Z" fill="white"/>
<path d="M21.5213 29.518C22.1803 29.076 22.9553 28.84 23.7473 28.84V28.838C24.2737 28.8386 24.7949 28.9432 25.2809 29.1457C25.7669 29.3482 26.2081 29.6446 26.5793 30.018C27.2352 30.6779 27.6432 31.544 27.7343 32.47C27.8254 33.3959 27.594 34.3249 27.0793 35.1C26.6399 35.762 26.0137 36.2785 25.2803 36.584C24.5482 36.8888 23.7418 36.9686 22.9642 36.8131C22.1865 36.6576 21.4729 36.2739 20.9143 35.711C20.3538 35.1464 19.9723 34.429 19.8178 33.6486C19.6632 32.8683 19.7423 32.0596 20.0453 31.324C20.348 30.5894 20.8616 29.9609 21.5213 29.518Z" fill="white"/>
<path d="M21.5213 29.518C22.1803 29.076 22.9553 28.84 23.7473 28.84V28.838C24.2737 28.8386 24.7949 28.9432 25.2809 29.1457C25.7669 29.3482 26.2081 29.6446 26.5793 30.018C27.2352 30.6779 27.6432 31.544 27.7343 32.47C27.8254 33.3959 27.594 34.3249 27.0793 35.1C26.6399 35.762 26.0137 36.2785 25.2803 36.584C24.5482 36.8888 23.7418 36.9686 22.9642 36.8131C22.1865 36.6576 21.4729 36.2739 20.9143 35.711C20.3538 35.1464 19.9723 34.429 19.8178 33.6486C19.6632 32.8683 19.7423 32.0596 20.0453 31.324C20.348 30.5894 20.8616 29.9609 21.5213 29.518Z" fill="white"/>
<path d="M21.5213 29.518C22.1803 29.076 22.9553 28.84 23.7473 28.84V28.838C24.2737 28.8386 24.7949 28.9432 25.2809 29.1457C25.7669 29.3482 26.2081 29.6446 26.5793 30.018C27.2352 30.6779 27.6432 31.544 27.7343 32.47C27.8254 33.3959 27.594 34.3249 27.0793 35.1C26.6399 35.762 26.0137 36.2785 25.2803 36.584C24.5482 36.8888 23.7418 36.9686 22.9642 36.8131C22.1865 36.6576 21.4729 36.2739 20.9143 35.711C20.3538 35.1464 19.9723 34.429 19.8178 33.6486C19.6632 32.8683 19.7423 32.0596 20.0453 31.324C20.348 30.5894 20.8616 29.9609 21.5213 29.518Z" fill="white"/>
<path d="M33.3243 19.758C33.7641 20.4198 33.9991 21.1974 33.9993 21.9931C33.9986 23.0597 33.5762 24.0827 32.8243 24.839C32.453 25.2122 32.0118 25.5086 31.5258 25.7111C31.0398 25.9136 30.5187 26.0182 29.9923 26.019C29.1994 26.019 28.4245 25.783 27.7663 25.341C27.1066 24.8981 26.593 24.2696 26.2903 23.535C25.9873 22.7994 25.9082 21.9907 26.0628 21.2104C26.2173 20.43 26.5988 19.7126 27.1593 19.148C27.7179 18.5849 28.4318 18.2011 29.2096 18.0456C29.9875 17.8901 30.794 17.9699 31.5263 18.275C32.2592 18.5804 32.885 19.0966 33.3243 19.758Z" fill="white"/>
<path d="M33.3243 19.758C33.7641 20.4198 33.9991 21.1974 33.9993 21.9931C33.9986 23.0597 33.5762 24.0827 32.8243 24.839C32.453 25.2122 32.0118 25.5086 31.5258 25.7111C31.0398 25.9136 30.5187 26.0182 29.9923 26.019C29.1994 26.019 28.4245 25.783 27.7663 25.341C27.1066 24.8981 26.593 24.2696 26.2903 23.535C25.9873 22.7994 25.9082 21.9907 26.0628 21.2104C26.2173 20.43 26.5988 19.7126 27.1593 19.148C27.7179 18.5849 28.4318 18.2011 29.2096 18.0456C29.9875 17.8901 30.794 17.9699 31.5263 18.275C32.2592 18.5804 32.885 19.0966 33.3243 19.758Z" fill="white"/>
<path d="M33.3243 19.758C33.7641 20.4198 33.9991 21.1974 33.9993 21.9931C33.9986 23.0597 33.5762 24.0827 32.8243 24.839C32.453 25.2122 32.0118 25.5086 31.5258 25.7111C31.0398 25.9136 30.5187 26.0182 29.9923 26.019C29.1994 26.019 28.4245 25.783 27.7663 25.341C27.1066 24.8981 26.593 24.2696 26.2903 23.535C25.9873 22.7994 25.9082 21.9907 26.0628 21.2104C26.2173 20.43 26.5988 19.7126 27.1593 19.148C27.7179 18.5849 28.4318 18.2011 29.2096 18.0456C29.9875 17.8901 30.794 17.9699 31.5263 18.275C32.2592 18.5804 32.885 19.0966 33.3243 19.758Z" fill="white"/>
<path d="M2.78026 18.647C3.43926 18.205 4.21326 17.969 5.00626 17.969C5.53261 17.9701 6.05357 18.075 6.53934 18.2776C7.02511 18.4803 7.46617 18.7767 7.83726 19.15C8.49287 19.8097 8.90068 20.6754 8.99178 21.601C9.08288 22.5265 8.85169 23.4552 8.33726 24.23C7.89793 24.8914 7.27217 25.4075 6.53926 25.713C5.8069 26.0164 5.00093 26.0953 4.22361 25.9399C3.44629 25.7845 2.73266 25.4017 2.17326 24.84C1.61296 24.2755 1.23165 23.5583 1.07708 22.7781C0.922498 21.9979 1.00153 21.1895 1.30426 20.454C1.60685 19.719 2.12048 19.0902 2.78026 18.647Z" fill="white"/>
<path d="M2.78026 18.647C3.43926 18.205 4.21326 17.969 5.00626 17.969C5.53261 17.9701 6.05357 18.075 6.53934 18.2776C7.02511 18.4803 7.46617 18.7767 7.83726 19.15C8.49287 19.8097 8.90068 20.6754 8.99178 21.601C9.08288 22.5265 8.85169 23.4552 8.33726 24.23C7.89793 24.8914 7.27217 25.4075 6.53926 25.713C5.8069 26.0164 5.00093 26.0953 4.22361 25.9399C3.44629 25.7845 2.73266 25.4017 2.17326 24.84C1.61296 24.2755 1.23165 23.5583 1.07708 22.7781C0.922498 21.9979 1.00153 21.1895 1.30426 20.454C1.60685 19.719 2.12048 19.0902 2.78026 18.647Z" fill="white"/>
<path d="M2.78026 18.647C3.43926 18.205 4.21326 17.969 5.00626 17.969C5.53261 17.9701 6.05357 18.075 6.53934 18.2776C7.02511 18.4803 7.46617 18.7767 7.83726 19.15C8.49287 19.8097 8.90068 20.6754 8.99178 21.601C9.08288 22.5265 8.85169 23.4552 8.33726 24.23C7.89793 24.8914 7.27217 25.4075 6.53926 25.713C5.8069 26.0164 5.00093 26.0953 4.22361 25.9399C3.44629 25.7845 2.73266 25.4017 2.17326 24.84C1.61296 24.2755 1.23165 23.5583 1.07708 22.7781C0.922498 21.9979 1.00153 21.1895 1.30426 20.454C1.60685 19.719 2.12048 19.0902 2.78026 18.647Z" fill="white"/>
<defs>
<filter id="filter0_d_48_84" x="46.69" y="11.7" width="86.168" height="32.3" filterUnits="userSpaceOnUse" color-interpolation-filters="sRGB">
<feFlood flood-opacity="0" result="BackgroundImageFix"/>
<feColorMatrix in="SourceAlpha" type="matrix" values="0 0 0 0 0 0 0 0 0 0 0 0 0 0 0 0 0 0 127 0" result="hardAlpha"/>
<feOffset dy="4"/>
<feGaussianBlur stdDeviation="2"/>
<feComposite in2="hardAlpha" operator="out"/>
<feColorMatrix type="matrix" values="0 0 0 0 0 0 0 0 0 0 0 0 0 0 0 0 0 0 0.25 0"/>
<feBlend mode="normal" in2="BackgroundImageFix" result="effect1_dropShadow_48_84"/>
<feBlend mode="normal" in="SourceGraphic" in2="effect1_dropShadow_48_84" result="shape"/>
</filter>
</defs>
</svg>
