<svg width="30" height="30" viewBox="0 0 30 30" fill="none" xmlns="http://www.w3.org/2000/svg">
<g clip-path="url(#clip0_33_13)">
<path d="M29.7312 5.47236C29.5139 5.32529 29.2269 5.33273 29.0179 5.49152C28.8063 5.65178 28.4628 5.78959 28.0723 5.90262C29.1414 4.65451 29.1635 3.82014 29.1509 3.62373C29.1366 3.40102 29.002 3.20373 28.8002 3.10863C28.5975 3.01418 28.3602 3.03656 28.1799 3.16752C26.8971 4.09963 25.62 4.30266 24.8523 4.32533C23.6607 3.19201 22.1157 2.5708 20.473 2.5708C16.9415 2.5708 14.0683 5.48197 14.0683 9.06012C14.0683 9.3498 14.0874 9.63891 14.1251 9.92561C8.09624 9.82301 3.20301 4.05211 3.1525 3.99141C3.02454 3.83807 2.83024 3.75463 2.62932 3.77379C2.43022 3.79113 2.25174 3.90475 2.1519 4.07783C0.452387 7.02639 1.49061 9.62813 2.53305 11.1868C2.42541 11.1229 2.33723 11.064 2.27688 11.0194C2.09272 10.8825 1.84698 10.8598 1.64102 10.9611C1.43471 11.0628 1.30287 11.2709 1.29901 11.5007C1.25295 14.3282 2.57424 15.9826 3.85803 16.9201C3.71905 16.9392 3.58868 17.0055 3.49088 17.112C3.34381 17.2716 3.29207 17.4973 3.35547 17.7051C4.24575 20.6193 6.40475 21.6515 7.83045 22.0168C4.94647 24.1929 0.766566 23.4826 0.720219 23.4739C0.44307 23.4252 0.165687 23.5713 0.0517809 23.8303C-0.0618324 24.0888 0.0159215 24.392 0.240746 24.5633C3.31481 26.9094 6.99133 27.4293 9.6468 27.4293C11.6549 27.4293 13.0788 27.1318 13.2157 27.1022C26.6113 23.9276 27.0359 11.6883 27.0084 9.60258C29.5213 7.26299 29.9166 6.36498 29.9781 6.14162C30.0475 5.88885 29.9483 5.61979 29.7312 5.47236ZM25.9736 8.89178C25.8371 9.01734 25.765 9.19852 25.7775 9.38385C25.7797 9.41672 25.9847 12.7342 24.5064 16.4307C22.5313 21.3696 18.6374 24.5591 12.9455 25.908C12.8845 25.9208 7.61899 27.0114 2.9967 24.8129C4.97278 24.7301 7.70934 24.1735 9.63491 22.0118C9.79575 21.8315 9.83401 21.5528 9.73505 21.3325C9.63608 21.1128 9.41635 20.9511 9.17542 20.9511C9.17424 20.9511 9.17301 20.9511 9.17126 20.9511C9.00954 20.9511 6.22182 20.9302 4.88612 18.2378C5.42629 18.2612 6.07206 18.2293 6.59249 17.9896C6.83225 17.8789 6.97393 17.6321 6.94434 17.37C6.91475 17.1078 6.72045 16.8966 6.46211 16.8422C6.31235 16.8105 3.08424 16.0901 2.58655 12.5828C3.08248 12.7894 3.70071 12.9495 4.31565 12.8573C4.55184 12.8221 4.74526 12.6523 4.81217 12.423C4.87885 12.194 4.8059 11.9466 4.62561 11.7896C4.48598 11.6684 1.44239 8.96115 2.8361 5.46311C4.48598 7.18178 9.19118 11.4612 14.8966 11.1342C15.0787 11.1237 15.2467 11.0322 15.3548 10.8851C15.4628 10.7381 15.4996 10.5506 15.455 10.3737C15.3474 9.94506 15.2927 9.5032 15.2927 9.06018C15.2927 6.15709 17.6164 3.79535 20.4729 3.79535C21.8699 3.79535 23.1801 4.35287 24.1626 5.36543C24.2753 5.48174 24.4295 5.54836 24.5916 5.55141C25.1575 5.5568 26.0893 5.4958 27.1423 5.10416C26.8283 5.47184 26.3892 5.90232 25.7751 6.38455C25.5629 6.55137 25.4849 6.83777 25.5832 7.0892C25.6819 7.34121 25.938 7.50053 26.2023 7.47633C26.326 7.46648 26.926 7.41357 27.6292 7.27096C27.2263 7.69928 26.6891 8.23383 25.9736 8.89178Z" fill="#FEFEFE"/>
</g>
<defs>
<clipPath id="clip0_33_13">
<rect width="30" height="30" fill="white"/>
</clipPath>
</defs>
</svg>
